<svg width="20" height="20" viewBox="0 0 20 20" fill="none" xmlns="http://www.w3.org/2000/svg">
<path d="M18.9994 14.5031V17.2182C19.0005 17.4703 18.9488 17.7198 18.8479 17.9507C18.7469 18.1817 18.5988 18.389 18.413 18.5594C18.2273 18.7298 18.008 18.8595 17.7693 18.9402C17.5305 19.021 17.2775 19.051 17.0265 19.0283C14.2415 18.7257 11.5664 17.774 9.21601 16.2498C7.02929 14.8603 5.17534 13.0063 3.7858 10.8196C2.25627 8.45858 1.30442 5.77043 1.00735 2.97297C0.98473 2.7227 1.01447 2.47046 1.09468 2.23231C1.17489 1.99417 1.30381 1.77533 1.47323 1.58974C1.64265 1.40414 1.84885 1.25586 2.07872 1.15432C2.30858 1.05279 2.55707 1.00023 2.80837 0.999996H5.52347C5.96269 0.995673 6.3885 1.15121 6.72152 1.43761C7.05455 1.72401 7.27207 2.12174 7.33354 2.55666C7.44814 3.42555 7.66067 4.27869 7.96707 5.09981C8.08883 5.42374 8.11519 5.77579 8.043 6.11424C7.97082 6.45269 7.80313 6.76336 7.5598 7.00943L6.41041 8.15882C7.69877 10.4246 9.57482 12.3007 11.8406 13.589L12.99 12.4396C13.2361 12.1963 13.5467 12.0286 13.8852 11.9564C14.2236 11.8843 14.5757 11.9106 14.8996 12.0324C15.7207 12.3388 16.5739 12.5513 17.4428 12.6659C17.8824 12.7279 18.2839 12.9494 18.5709 13.2881C18.858 13.6269 19.0105 14.0593 18.9994 14.5031Z" stroke="#2B3E5E" stroke-width="1.7" stroke-linecap="round" stroke-linejoin="round"/>
</svg>
