<svg width="304" height="40" viewBox="0 0 304 40" fill="none" xmlns="http://www.w3.org/2000/svg">
<rect x="0.5" y="0.5" width="303" height="39" rx="3.5" fill="#E8873B"/>
<path d="M131.654 23.824C132.522 24.678 133.712 25.168 134.944 25.168C137.002 25.168 138.234 23.936 138.234 22.452C138.234 21.122 137.478 20.436 136.386 19.974L135.154 19.456C134.398 19.148 133.698 18.882 133.698 18.168C133.698 17.496 134.258 17.09 135.126 17.09C135.91 17.09 136.54 17.384 137.114 17.874L137.954 16.838C137.24 16.124 136.204 15.676 135.126 15.676C133.348 15.676 132.06 16.796 132.06 18.252C132.06 19.596 132.998 20.31 133.908 20.688L135.154 21.234C135.994 21.584 136.582 21.822 136.582 22.578C136.582 23.292 136.008 23.754 134.986 23.754C134.132 23.754 133.25 23.334 132.592 22.718L131.654 23.824ZM140.558 16.922C141.132 16.922 141.552 16.544 141.552 16.012C141.552 15.466 141.132 15.088 140.558 15.088C139.984 15.088 139.564 15.466 139.564 16.012C139.564 16.544 139.984 16.922 140.558 16.922ZM139.746 25H141.356V18.126H139.746V25ZM144.292 26.008C144.292 25.686 144.46 25.378 144.824 25.098C145.09 25.168 145.384 25.196 145.762 25.196H146.7C147.484 25.196 147.918 25.35 147.918 25.882C147.918 26.47 147.162 26.988 146.056 26.988C144.964 26.988 144.292 26.624 144.292 26.008ZM142.948 26.246C142.948 27.45 144.166 28.038 145.804 28.038C148.044 28.038 149.472 26.974 149.472 25.616C149.472 24.426 148.604 23.922 146.952 23.922H145.734C144.894 23.922 144.614 23.684 144.614 23.292C144.614 22.984 144.74 22.816 144.95 22.634C145.258 22.76 145.594 22.816 145.888 22.816C147.344 22.816 148.492 22.004 148.492 20.478C148.492 20.002 148.324 19.582 148.1 19.316H149.36V18.126H146.896C146.616 18.028 146.266 17.958 145.888 17.958C144.446 17.958 143.172 18.84 143.172 20.422C143.172 21.234 143.606 21.892 144.068 22.242V22.298C143.676 22.578 143.312 23.04 143.312 23.572C143.312 24.132 143.578 24.496 143.928 24.72V24.776C143.298 25.168 142.948 25.672 142.948 26.246ZM145.888 21.808C145.216 21.808 144.684 21.304 144.684 20.422C144.684 19.554 145.216 19.064 145.888 19.064C146.56 19.064 147.078 19.568 147.078 20.422C147.078 21.304 146.546 21.808 145.888 21.808ZM150.683 25H152.293V20.198C152.867 19.638 153.259 19.344 153.861 19.344C154.617 19.344 154.939 19.764 154.939 20.898V25H156.549V20.688C156.549 18.952 155.905 17.958 154.435 17.958C153.497 17.958 152.797 18.448 152.181 19.05H152.125L152.013 18.126H150.683V25ZM162.2 16.922C162.774 16.922 163.194 16.544 163.194 16.012C163.194 15.466 162.774 15.088 162.2 15.088C161.626 15.088 161.206 15.466 161.206 16.012C161.206 16.544 161.626 16.922 162.2 16.922ZM161.388 25H162.998V18.126H161.388V25ZM165.052 25H166.662V20.198C167.236 19.638 167.628 19.344 168.23 19.344C168.986 19.344 169.308 19.764 169.308 20.898V25H170.918V20.688C170.918 18.952 170.274 17.958 168.804 17.958C167.866 17.958 167.166 18.448 166.55 19.05H166.494L166.382 18.126H165.052V25Z" fill="white"/>
<rect x="0.5" y="0.5" width="303" height="39" rx="3.5" stroke="#E8873B"/>
</svg>
