<svg width="17" height="20" viewBox="0 0 17 20" fill="none" xmlns="http://www.w3.org/2000/svg">
<path d="M10.1328 1.12494H2.93281C2.45542 1.12494 1.99759 1.31458 1.66002 1.65215C1.32245 1.98971 1.13281 2.44755 1.13281 2.92494V17.3249C1.13281 17.8023 1.32245 18.2602 1.66002 18.5977C1.99759 18.9353 2.45542 19.1249 2.93281 19.1249H13.7328C14.2102 19.1249 14.668 18.9353 15.0056 18.5977C15.3432 18.2602 15.5328 17.8023 15.5328 17.3249V6.52494L10.1328 1.12494Z" stroke="#2B3E5E" stroke-width="1.7" stroke-linecap="round" stroke-linejoin="round"/>
<path d="M10.1328 1.12494V6.52494H15.5328" stroke="#2B3E5E" stroke-width="1.7" stroke-linecap="round" stroke-linejoin="round"/>
<path d="M11.9324 11.025H4.73242" stroke="#2B3E5E" stroke-width="1.7" stroke-linecap="round" stroke-linejoin="round"/>
<path d="M11.9324 14.6249H4.73242" stroke="#2B3E5E" stroke-width="1.7" stroke-linecap="round" stroke-linejoin="round"/>
<path d="M6.53242 7.42496H5.63242H4.73242" stroke="#2B3E5E" stroke-width="1.7" stroke-linecap="round" stroke-linejoin="round"/>
</svg>
