<svg width="18" height="18" viewBox="0 0 18 18" fill="none" xmlns="http://www.w3.org/2000/svg">
<path fill-rule="evenodd" clip-rule="evenodd" d="M16 0H2C0.9 0 0 0.9 0 2V16C0 17.1 0.9 18 2 18H16C17.1 18 18 17.1 18 16V2C18 0.9 17.1 0 16 0ZM10.602 5.05102C10.3259 5.05102 10.102 5.27488 10.102 5.55102V6.38775C10.102 6.6639 10.3259 6.88775 10.602 6.88775H14.1939C14.47 6.88775 14.6939 6.6639 14.6939 6.38775V5.55102C14.6939 5.27488 14.47 5.05102 14.1939 5.05102H10.602ZM10.602 11.4796C10.3259 11.4796 10.102 11.7034 10.102 11.9796V12.8163C10.102 13.0925 10.3259 13.3163 10.602 13.3163H14.1939C14.47 13.3163 14.6939 13.0925 14.6939 12.8163V11.9796C14.6939 11.7034 14.47 11.4796 14.1939 11.4796H10.602ZM1.52329 16.5306H16.5305V1.83673H1.52329V16.5306ZM8.26531 4.67347C8.26531 4.12118 7.81759 3.67347 7.26531 3.67347H4.67347C4.12118 3.67347 3.67347 4.12118 3.67347 4.67347V7.26531C3.67347 7.81759 4.12118 8.26531 4.67347 8.26531H7.26531C7.81759 8.26531 8.26531 7.81759 8.26531 7.26531V4.67347ZM4.59184 7.34694H7.34694V4.59184H4.59184V7.34694ZM8.26531 11.102C8.26531 10.5498 7.81759 10.102 7.26531 10.102H4.67347C4.12118 10.102 3.67347 10.5498 3.67347 11.102V13.6939C3.67347 14.2462 4.12118 14.6939 4.67347 14.6939H7.26531C7.81759 14.6939 8.26531 14.2462 8.26531 13.6939V11.102ZM4.59184 13.7755H7.34694V11.0204H4.59184V13.7755Z" fill="#E8873B"/>
</svg>
