<svg width="24" height="24" viewBox="0 0 24 24" fill="none" xmlns="http://www.w3.org/2000/svg">
<path d="M19.5 3H7.5C6.70435 3 5.94129 3.31607 5.37868 3.87868C4.81607 4.44129 4.5 5.20435 4.5 6V6.75H3.75C3.55109 6.75 3.36032 6.82902 3.21967 6.96967C3.07902 7.11032 3 7.30109 3 7.5C3 7.69891 3.07902 7.88968 3.21967 8.03033C3.36032 8.17098 3.55109 8.25 3.75 8.25H4.5V11.25H3.75C3.55109 11.25 3.36032 11.329 3.21967 11.4697C3.07902 11.6103 3 11.8011 3 12C3 12.1989 3.07902 12.3897 3.21967 12.5303C3.36032 12.671 3.55109 12.75 3.75 12.75H4.5V15.75H3.75C3.55109 15.75 3.36032 15.829 3.21967 15.9697C3.07902 16.1103 3 16.3011 3 16.5C3 16.6989 3.07902 16.8897 3.21967 17.0303C3.36032 17.171 3.55109 17.25 3.75 17.25H4.5V18C4.5 18.7956 4.81607 19.5587 5.37868 20.1213C5.94129 20.6839 6.70435 21 7.5 21H19.5C19.8978 21 20.2794 20.842 20.5607 20.5607C20.842 20.2794 21 19.8978 21 19.5V4.5C21 4.10217 20.842 3.72064 20.5607 3.43934C20.2794 3.15804 19.8978 3 19.5 3ZM19.5 19.5H7.5C7.10218 19.5 6.72064 19.342 6.43934 19.0607C6.15804 18.7794 6 18.3978 6 18V17.25H6.75C6.94891 17.25 7.13968 17.171 7.28033 17.0303C7.42098 16.8897 7.5 16.6989 7.5 16.5C7.5 16.3011 7.42098 16.1103 7.28033 15.9697C7.13968 15.829 6.94891 15.75 6.75 15.75H6V12.75H6.75C6.94891 12.75 7.13968 12.671 7.28033 12.5303C7.42098 12.3897 7.5 12.1989 7.5 12C7.5 11.8011 7.42098 11.6103 7.28033 11.4697C7.13968 11.329 6.94891 11.25 6.75 11.25H6V8.25H6.75C6.94891 8.25 7.13968 8.17098 7.28033 8.03033C7.42098 7.88968 7.5 7.69891 7.5 7.5C7.5 7.30109 7.42098 7.11032 7.28033 6.96967C7.13968 6.82902 6.94891 6.75 6.75 6.75H6V6C6 5.60217 6.15804 5.22064 6.43934 4.93934C6.72064 4.65803 7.10218 4.5 7.5 4.5H19.5V19.5Z" fill="#2B3E5E"/>
<path d="M9.75 17.2494C9.94891 17.2494 10.1397 17.1704 10.2803 17.0297C10.421 16.8891 10.5 16.6983 10.5 16.4994V15.7494C10.5 14.9537 10.8161 14.1907 11.3787 13.6281C11.9413 13.0655 12.7043 12.7494 13.5 12.7494C14.2956 12.7494 15.0587 13.0655 15.6213 13.6281C16.1839 14.1907 16.5 14.9537 16.5 15.7494V16.4994C16.5 16.6983 16.579 16.8891 16.7197 17.0297C16.8603 17.1704 17.0511 17.2494 17.25 17.2494C17.4489 17.2494 17.6397 17.1704 17.7803 17.0297C17.921 16.8891 18 16.6983 18 16.4994V15.7494C17.9991 14.9446 17.7824 14.1549 17.3725 13.4623C16.9626 12.7698 16.3744 12.1999 15.6694 11.8119C16.0752 11.3871 16.3473 10.8524 16.452 10.2744C16.5567 9.69627 16.4893 9.10017 16.2583 8.56001C16.0273 8.01985 15.6427 7.55942 15.1524 7.23583C14.662 6.91224 14.0875 6.73975 13.5 6.73975C12.9125 6.73975 12.3379 6.91224 11.8476 7.23583C11.3573 7.55942 10.9727 8.01985 10.7417 8.56001C10.5107 9.10017 10.4433 9.69627 10.548 10.2744C10.6527 10.8524 10.9248 11.3871 11.3306 11.8119C10.6256 12.1999 10.0374 12.7698 9.62752 13.4623C9.2176 14.1549 9.00091 14.9446 9 15.7494V16.4994C9 16.6983 9.07902 16.8891 9.21967 17.0297C9.36032 17.1704 9.55109 17.2494 9.75 17.2494ZM12 9.7494C12 9.45273 12.088 9.16272 12.2528 8.91604C12.4176 8.66937 12.6519 8.47711 12.926 8.36358C13.2001 8.25005 13.5017 8.22034 13.7926 8.27822C14.0836 8.3361 14.3509 8.47896 14.5607 8.68874C14.7704 8.89852 14.9133 9.16579 14.9712 9.45676C15.0291 9.74773 14.9993 10.0493 14.8858 10.3234C14.7723 10.5975 14.58 10.8318 14.3334 10.9966C14.0867 11.1614 13.7967 11.2494 13.5 11.2494C13.1022 11.2494 12.7206 11.0914 12.4393 10.8101C12.158 10.5288 12 10.1472 12 9.7494Z" fill="#2B3E5E"/>
</svg>
