<svg width="24" height="24" viewBox="0 0 24 24" fill="none" xmlns="http://www.w3.org/2000/svg">
<path d="M18.9004 2.39844H6.90039C6.10474 2.39844 5.34168 2.71451 4.77907 3.27712C4.21646 3.83973 3.90039 4.60279 3.90039 5.39844V6.14844H3.15039C2.95148 6.14844 2.76071 6.22745 2.62006 6.36811C2.47941 6.50876 2.40039 6.69952 2.40039 6.89844C2.40039 7.09735 2.47941 7.28811 2.62006 7.42877C2.76071 7.56942 2.95148 7.64844 3.15039 7.64844H3.90039V10.6484H3.15039C2.95148 10.6484 2.76071 10.7275 2.62006 10.8681C2.47941 11.0088 2.40039 11.1995 2.40039 11.3984C2.40039 11.5973 2.47941 11.7881 2.62006 11.9288C2.76071 12.0694 2.95148 12.1484 3.15039 12.1484H3.90039V15.1484H3.15039C2.95148 15.1484 2.76071 15.2275 2.62006 15.3681C2.47941 15.5088 2.40039 15.6995 2.40039 15.8984C2.40039 16.0973 2.47941 16.2881 2.62006 16.4288C2.76071 16.5694 2.95148 16.6484 3.15039 16.6484H3.90039V17.3984C3.90039 18.1941 4.21646 18.9571 4.77907 19.5198C5.34168 20.0824 6.10474 20.3984 6.90039 20.3984H18.9004C19.2982 20.3984 19.6797 20.2404 19.9611 19.9591C20.2424 19.6778 20.4004 19.2963 20.4004 18.8984V3.89844C20.4004 3.50061 20.2424 3.11908 19.9611 2.83778C19.6797 2.55647 19.2982 2.39844 18.9004 2.39844ZM18.9004 18.8984H6.90039C6.50257 18.8984 6.12103 18.7404 5.83973 18.4591C5.55843 18.1778 5.40039 17.7963 5.40039 17.3984V16.6484H6.15039C6.3493 16.6484 6.54007 16.5694 6.68072 16.4288C6.82137 16.2881 6.90039 16.0973 6.90039 15.8984C6.90039 15.6995 6.82137 15.5088 6.68072 15.3681C6.54007 15.2275 6.3493 15.1484 6.15039 15.1484H5.40039V12.1484H6.15039C6.3493 12.1484 6.54007 12.0694 6.68072 11.9288C6.82137 11.7881 6.90039 11.5973 6.90039 11.3984C6.90039 11.1995 6.82137 11.0088 6.68072 10.8681C6.54007 10.7275 6.3493 10.6484 6.15039 10.6484H5.40039V7.64844H6.15039C6.3493 7.64844 6.54007 7.56942 6.68072 7.42877C6.82137 7.28811 6.90039 7.09735 6.90039 6.89844C6.90039 6.69952 6.82137 6.50876 6.68072 6.36811C6.54007 6.22745 6.3493 6.14844 6.15039 6.14844H5.40039V5.39844C5.40039 5.00061 5.55843 4.61908 5.83973 4.33778C6.12103 4.05647 6.50257 3.89844 6.90039 3.89844H18.9004V18.8984Z" fill="#E8873B"/>
<path d="M9.15039 16.6473C9.3493 16.6473 9.54007 16.5683 9.68072 16.4277C9.82137 16.287 9.90039 16.0963 9.90039 15.8973V15.1473C9.90039 14.3517 10.2165 13.5886 10.7791 13.026C11.3417 12.4634 12.1047 12.1473 12.9004 12.1473C13.696 12.1473 14.4591 12.4634 15.0217 13.026C15.5843 13.5886 15.9004 14.3517 15.9004 15.1473V15.8973C15.9004 16.0963 15.9794 16.287 16.1201 16.4277C16.2607 16.5683 16.4515 16.6473 16.6504 16.6473C16.8493 16.6473 17.0401 16.5683 17.1807 16.4277C17.3214 16.287 17.4004 16.0963 17.4004 15.8973V15.1473C17.3995 14.3426 17.1828 13.5528 16.7729 12.8603C16.363 12.1677 15.7748 11.5978 15.0698 11.2098C15.4755 10.785 15.7477 10.2504 15.8524 9.67231C15.9571 9.09422 15.8897 8.49812 15.6587 7.95796C15.4277 7.4178 15.0431 6.95737 14.5528 6.63378C14.0624 6.31019 13.4879 6.1377 12.9004 6.1377C12.3129 6.1377 11.7383 6.31019 11.248 6.63378C10.7577 6.95737 10.3731 7.4178 10.1421 7.95796C9.91106 8.49812 9.84372 9.09422 9.94841 9.67231C10.0531 10.2504 10.3252 10.785 10.731 11.2098C10.0259 11.5978 9.43782 12.1677 9.02791 12.8603C8.61799 13.5528 8.4013 14.3426 8.40039 15.1473V15.8973C8.40039 16.0963 8.47941 16.287 8.62006 16.4277C8.76071 16.5683 8.95148 16.6473 9.15039 16.6473ZM11.4004 9.14735C11.4004 8.85068 11.4884 8.56067 11.6532 8.31399C11.818 8.06732 12.0523 7.87506 12.3264 7.76153C12.6005 7.648 12.9021 7.61829 13.193 7.67617C13.484 7.73405 13.7513 7.87691 13.961 8.08669C14.1708 8.29647 14.3137 8.56374 14.3716 8.85471C14.4294 9.14568 14.3997 9.44728 14.2862 9.72137C14.1727 9.99546 13.9804 10.2297 13.7337 10.3946C13.4871 10.5594 13.1971 10.6473 12.9004 10.6473C12.5026 10.6473 12.121 10.4893 11.8397 10.208C11.5584 9.9267 11.4004 9.54517 11.4004 9.14735Z" fill="#E8873B"/>
</svg>
