<svg width="24" height="26" viewBox="0 0 24 26" fill="none" xmlns="http://www.w3.org/2000/svg">
<path d="M10.875 3.54034H3.75C3.54375 3.54034 3.375 3.71732 3.375 3.93363V11.406C3.375 11.6223 3.54375 11.7992 3.75 11.7992H10.875C11.0813 11.7992 11.25 11.6223 11.25 11.406V3.93363C11.25 3.71732 11.0813 3.54034 10.875 3.54034ZM9.65625 10.1278H4.96875V5.21179H9.65625V10.1278ZM20.25 3.54034H13.125C12.9187 3.54034 12.75 3.71732 12.75 3.93363V11.406C12.75 11.6223 12.9187 11.7992 13.125 11.7992H20.25C20.4562 11.7992 20.625 11.6223 20.625 11.406V3.93363C20.625 3.71732 20.4562 3.54034 20.25 3.54034ZM19.0312 10.1278H14.3438V5.21179H19.0312V10.1278ZM10.875 13.3724H3.75C3.54375 13.3724 3.375 13.5494 3.375 13.7657V21.238C3.375 21.4543 3.54375 21.6313 3.75 21.6313H10.875C11.0813 21.6313 11.25 21.4543 11.25 21.238V13.7657C11.25 13.5494 11.0813 13.3724 10.875 13.3724ZM9.65625 19.9598H4.96875V15.0438H9.65625V19.9598ZM20.25 13.3724H13.125C12.9187 13.3724 12.75 13.5494 12.75 13.7657V21.238C12.75 21.4543 12.9187 21.6313 13.125 21.6313H20.25C20.4562 21.6313 20.625 21.4543 20.625 21.238V13.7657C20.625 13.5494 20.4562 13.3724 20.25 13.3724ZM19.0312 19.9598H14.3438V15.0438H19.0312V19.9598Z" fill="#E8873B"/>
</svg>
