<svg width="24" height="24" viewBox="0 0 24 24" fill="none" xmlns="http://www.w3.org/2000/svg">
<path d="M12 21C16.9706 21 21 16.9706 21 12C21 7.02944 16.9706 3 12 3C7.02944 3 3 7.02944 3 12C3 16.9706 7.02944 21 12 21Z" stroke="#2B3E5E" stroke-width="1.7" stroke-linecap="round" stroke-linejoin="round"/>
<path d="M11.998 16.4981H12.008" stroke="#2B3E5E" stroke-width="1.7" stroke-linecap="round" stroke-linejoin="round"/>
<path fill-rule="evenodd" clip-rule="evenodd" d="M10.9892 8.59766C11.3658 8.37629 11.8087 8.29537 12.2393 8.36923C12.6699 8.44309 13.0605 8.66696 13.3418 9.0012C13.6232 9.33543 13.7772 9.75846 13.7765 10.1954L13.7765 10.1966C13.7765 10.6454 13.4287 11.0986 12.805 11.5144C12.5191 11.705 12.2271 11.8516 12.0032 11.9511C11.8925 12.0003 11.8014 12.0367 11.7399 12.0601C11.7093 12.0718 11.6863 12.0802 11.6721 12.0852L11.6577 12.0902L11.6573 12.0904L11.6573 12.0904L11.6571 12.0904L11.6569 12.0905L11.6563 12.0907L11.6563 12.0907L11.6559 12.0908C11.3016 12.2098 11.0773 12.5398 11.0763 12.8942L11.0692 12.8943L11.069 14.1494C11.0689 14.6376 11.4646 15.0334 11.9528 15.0334C12.4409 15.0334 12.8366 14.6377 12.8366 14.1496V13.4393C13.0988 13.3162 13.4213 13.1467 13.748 12.9289C14.4742 12.4447 15.4762 11.5481 15.4765 10.1973L15.4765 10.1979L14.6265 10.1966H15.4765V10.1973C15.4776 9.35912 15.1821 8.54761 14.6424 7.9064C14.1025 7.26503 13.353 6.83543 12.5267 6.6937C11.7004 6.55197 10.8506 6.70724 10.1278 7.13203C9.40502 7.55682 8.8559 8.2237 8.57769 9.01456C8.42191 9.4574 8.65462 9.94268 9.09746 10.0985C9.5403 10.2542 10.0256 10.0215 10.1814 9.57869C10.3263 9.16655 10.6125 8.81902 10.9892 8.59766Z" fill="#2B3E5E"/>
</svg>
