<svg width="20" height="15" viewBox="0 0 20 15" fill="none" xmlns="http://www.w3.org/2000/svg">
<path d="M15.4532 13.7869V12.4339C15.4532 11.7162 15.1681 11.0279 14.6606 10.5204C14.1531 10.0129 13.4648 9.72784 12.7471 9.72784H7.33497C6.61728 9.72784 5.92898 10.0129 5.42149 10.5204C4.91401 11.0279 4.62891 11.7162 4.62891 12.4339V13.7869" stroke="#2B3E5E" stroke-width="1.7" stroke-linecap="round" stroke-linejoin="round"/>
<path d="M10.0401 7.02151C11.5346 7.02151 12.7461 5.80996 12.7461 4.31544C12.7461 2.82092 11.5346 1.60938 10.0401 1.60938C8.54553 1.60938 7.33398 2.82092 7.33398 4.31544C7.33398 5.80996 8.54553 7.02151 10.0401 7.02151Z" stroke="#2B3E5E" stroke-width="1.7" stroke-linecap="round" stroke-linejoin="round"/>
<path d="M19.0003 13.7863V12.4332C18.9998 11.8337 18.8002 11.2512 18.4329 10.7773C18.0656 10.3035 17.5512 9.96502 16.9707 9.81512" stroke="#2B3E5E" stroke-width="1.7" stroke-linecap="round" stroke-linejoin="round"/>
<path d="M0.999746 13.7863V12.4332C1.00019 11.8337 1.19975 11.2512 1.5671 10.7773C1.93444 10.3035 2.44876 9.96502 3.0293 9.81512" stroke="#2B3E5E" stroke-width="1.7" stroke-linecap="round" stroke-linejoin="round"/>
<path d="M14.5742 1.69666C15.1563 1.84569 15.6722 2.18422 16.0407 2.65887C16.4091 3.13352 16.6091 3.71729 16.6091 4.31816C16.6091 4.91902 16.4091 5.50279 16.0407 5.97744C15.6722 6.45209 15.1563 6.79062 14.5742 6.93966" stroke="#2B3E5E" stroke-width="1.7" stroke-linecap="round" stroke-linejoin="round"/>
<path d="M5.73438 1.69666C5.15229 1.84569 4.63637 2.18422 4.26793 2.65887C3.8995 3.13352 3.69952 3.71729 3.69952 4.31816C3.69952 4.91902 3.8995 5.50279 4.26793 5.97744C4.63637 6.45209 5.15229 6.79062 5.73438 6.93966" stroke="#2B3E5E" stroke-width="1.7" stroke-linecap="round" stroke-linejoin="round"/>
</svg>
