<svg width="23" height="17" viewBox="0 0 23 17" fill="none" xmlns="http://www.w3.org/2000/svg">
<path d="M17.8619 15.9305V14.3027C17.8619 13.4392 17.5292 12.611 16.9372 12.0005C16.3451 11.3899 15.5421 11.0469 14.7047 11.0469H8.39051C7.55319 11.0469 6.75017 11.3899 6.1581 12.0005C5.56602 12.611 5.2334 13.4392 5.2334 14.3027V15.9305" stroke="#E8873B" stroke-width="2" stroke-linecap="round" stroke-linejoin="round"/>
<path d="M11.5477 7.7928C13.2914 7.7928 14.7049 6.33514 14.7049 4.53703C14.7049 2.73891 13.2914 1.28125 11.5477 1.28125C9.80411 1.28125 8.39062 2.73891 8.39062 4.53703C8.39062 6.33514 9.80411 7.7928 11.5477 7.7928Z" stroke="#E8873B" stroke-width="2" stroke-linecap="round" stroke-linejoin="round"/>
<path d="M22.0002 15.9341V14.3062C21.9996 13.5848 21.7668 12.8841 21.3382 12.3139C20.9097 11.7438 20.3096 11.3366 19.6323 11.1562" stroke="#E8873B" stroke-width="2" stroke-linecap="round" stroke-linejoin="round"/>
<path d="M0.999835 15.9341V14.3062C1.00036 13.5848 1.23318 12.8841 1.66175 12.3139C2.09032 11.7438 2.69037 11.3366 3.36768 11.1562" stroke="#E8873B" stroke-width="2" stroke-linecap="round" stroke-linejoin="round"/>
<path d="M16.8374 1.38672C17.5165 1.56603 18.1184 1.97333 18.5483 2.5444C18.9781 3.11547 19.2114 3.81783 19.2114 4.54075C19.2114 5.26367 18.9781 5.96603 18.5483 6.5371C18.1184 7.10818 17.5165 7.51547 16.8374 7.69479" stroke="#E8873B" stroke-width="2" stroke-linecap="round" stroke-linejoin="round"/>
<path d="M6.5249 1.38672C5.8458 1.56603 5.24387 1.97333 4.81403 2.5444C4.38419 3.11547 4.15088 3.81783 4.15088 4.54075C4.15088 5.26367 4.38419 5.96603 4.81403 6.5371C5.24387 7.10818 5.8458 7.51547 6.5249 7.69479" stroke="#E8873B" stroke-width="2" stroke-linecap="round" stroke-linejoin="round"/>
</svg>
