<svg width="20" height="15" viewBox="0 0 20 15" fill="none" xmlns="http://www.w3.org/2000/svg">
<path d="M15.4532 13.7857V12.4326C15.4532 11.7149 15.1681 11.0266 14.6606 10.5192C14.1531 10.0117 13.4648 9.72656 12.7471 9.72656H7.33497C6.61728 9.72656 5.92898 10.0117 5.42149 10.5192C4.91401 11.0266 4.62891 11.7149 4.62891 12.4326V13.7857" stroke="#E8873B" stroke-width="1.7" stroke-linecap="round" stroke-linejoin="round"/>
<path d="M10.0405 7.02151C11.5351 7.02151 12.7466 5.80996 12.7466 4.31544C12.7466 2.82092 11.5351 1.60938 10.0405 1.60938C8.54602 1.60938 7.33447 2.82092 7.33447 4.31544C7.33447 5.80996 8.54602 7.02151 10.0405 7.02151Z" stroke="#E8873B" stroke-width="1.7" stroke-linecap="round" stroke-linejoin="round"/>
<path d="M19.0003 13.7876V12.4345C18.9998 11.8349 18.8002 11.2525 18.4329 10.7786C18.0656 10.3048 17.5512 9.9663 16.9707 9.81641" stroke="#E8873B" stroke-width="1.7" stroke-linecap="round" stroke-linejoin="round"/>
<path d="M1.00023 13.7876V12.4345C1.00068 11.8349 1.20024 11.2525 1.56758 10.7786C1.93493 10.3048 2.44925 9.9663 3.02979 9.81641" stroke="#E8873B" stroke-width="1.7" stroke-linecap="round" stroke-linejoin="round"/>
<path d="M14.5742 1.69531C15.1563 1.84435 15.6722 2.18288 16.0407 2.65753C16.4091 3.13218 16.6091 3.71595 16.6091 4.31681C16.6091 4.91768 16.4091 5.50145 16.0407 5.9761C15.6722 6.45075 15.1563 6.78928 14.5742 6.93832" stroke="#E8873B" stroke-width="1.7" stroke-linecap="round" stroke-linejoin="round"/>
<path d="M5.73535 1.69531C5.15327 1.84435 4.63734 2.18288 4.26891 2.65753C3.90048 3.13218 3.7005 3.71595 3.7005 4.31681C3.7005 4.91768 3.90048 5.50145 4.26891 5.9761C4.63734 6.45075 5.15327 6.78928 5.73535 6.93832" stroke="#E8873B" stroke-width="1.7" stroke-linecap="round" stroke-linejoin="round"/>
</svg>
