<svg width="10" height="10" viewBox="0 0 18 18" fill="none" xmlns="http://www.w3.org/2000/svg">
<path d="M14.25 8.24976H3.75C2.92157 8.24976 2.25 8.92133 2.25 9.74976V14.9998C2.25 15.8282 2.92157 16.4998 3.75 16.4998H14.25C15.0784 16.4998 15.75 15.8282 15.75 14.9998V9.74976C15.75 8.92133 15.0784 8.24976 14.25 8.24976Z" stroke="#9198A5" stroke-width="1.5" stroke-linecap="round" stroke-linejoin="round"/>
<path d="M5.25 7.50024V4.50024C5.25 3.50568 5.64509 2.55186 6.34835 1.84859C7.05161 1.14533 8.00544 0.750244 9 0.750244C9.99456 0.750244 10.9484 1.14533 11.6516 1.84859C12.3549 2.55186 12.75 3.50568 12.75 4.50024V7.50024" stroke="#9198A5" stroke-width="1.5" stroke-linecap="round" stroke-linejoin="round"/>
</svg>
