<svg width="24" height="24" viewBox="0 0 24 24" fill="none" xmlns="http://www.w3.org/2000/svg">
<mask id="path-1-inside-1" fill="white">
<path fill-rule="evenodd" clip-rule="evenodd" d="M14.9438 4.41895C18.7916 5.50832 21.6157 9.03488 21.6427 13.2253C22.7327 13.6747 23.5 14.7477 23.5 16C23.5 17.6569 22.1569 19 20.5 19C20.2354 19 19.9788 18.9657 19.7344 18.9014C18.0498 21.0899 15.4039 22.5 12.4286 22.5C9.46645 22.5 6.83079 21.1023 5.14513 18.9305C4.93733 18.976 4.72147 19 4.5 19C2.84315 19 1.5 17.6569 1.5 16C1.5 14.8033 2.20073 13.7702 3.21427 13.2887C3.21427 13.2877 3.21427 13.2867 3.21427 13.2858C3.21427 9.40384 5.61481 6.08259 9.01239 4.7255C9.15101 3.1973 10.4357 2 12 2C13.4581 2 14.6732 3.04018 14.9438 4.41895ZM4.71919 13.0079C4.82597 9.99187 6.66412 7.41658 9.27002 6.24564C9.74309 7.28075 10.7875 8 12 8C13.3222 8 14.4445 7.1447 14.8441 5.9572C17.8418 6.9447 20.0273 9.7202 20.1384 13.0216C18.6521 13.2001 17.5 14.4655 17.5 16C17.5 16.8455 17.8498 17.6093 18.4125 18.1546C16.998 19.891 14.8428 21 12.4286 21C10.0494 21 7.92187 19.9231 6.50678 18.23C7.11659 17.6809 7.5 16.8852 7.5 16C7.5 14.4169 6.27371 13.1201 4.71919 13.0079Z"/>
</mask>
<path fill-rule="evenodd" clip-rule="evenodd" d="M14.9438 4.41895C18.7916 5.50832 21.6157 9.03488 21.6427 13.2253C22.7327 13.6747 23.5 14.7477 23.5 16C23.5 17.6569 22.1569 19 20.5 19C20.2354 19 19.9788 18.9657 19.7344 18.9014C18.0498 21.0899 15.4039 22.5 12.4286 22.5C9.46645 22.5 6.83079 21.1023 5.14513 18.9305C4.93733 18.976 4.72147 19 4.5 19C2.84315 19 1.5 17.6569 1.5 16C1.5 14.8033 2.20073 13.7702 3.21427 13.2887C3.21427 13.2877 3.21427 13.2867 3.21427 13.2858C3.21427 9.40384 5.61481 6.08259 9.01239 4.7255C9.15101 3.1973 10.4357 2 12 2C13.4581 2 14.6732 3.04018 14.9438 4.41895ZM4.71919 13.0079C4.82597 9.99187 6.66412 7.41658 9.27002 6.24564C9.74309 7.28075 10.7875 8 12 8C13.3222 8 14.4445 7.1447 14.8441 5.9572C17.8418 6.9447 20.0273 9.7202 20.1384 13.0216C18.6521 13.2001 17.5 14.4655 17.5 16C17.5 16.8455 17.8498 17.6093 18.4125 18.1546C16.998 19.891 14.8428 21 12.4286 21C10.0494 21 7.92187 19.9231 6.50678 18.23C7.11659 17.6809 7.5 16.8852 7.5 16C7.5 14.4169 6.27371 13.1201 4.71919 13.0079Z" fill="white"/>
<path d="M21.6427 13.2253L20.6427 13.2317L20.6469 13.8964L21.2615 14.1498L21.6427 13.2253ZM14.9438 4.41895L13.9625 4.61154L14.0807 5.21392L14.6714 5.38114L14.9438 4.41895ZM19.7344 18.9014L19.9889 17.9344L19.347 17.7654L18.942 18.2914L19.7344 18.9014ZM5.14513 18.9305L5.93511 18.3173L5.54792 17.8185L4.93106 17.9536L5.14513 18.9305ZM3.21427 13.2887L3.64337 14.192L4.2145 13.9206L4.21427 13.2883L3.21427 13.2887ZM9.01239 4.7255L9.38332 5.65416L9.95289 5.42666L10.0083 4.81584L9.01239 4.7255ZM9.27002 6.24564L10.1795 5.82997L9.76651 4.92623L8.86016 5.33349L9.27002 6.24564ZM4.71919 13.0079L3.71981 12.9725L3.6857 13.9359L4.64717 14.0053L4.71919 13.0079ZM14.8441 5.9572L15.1569 5.00741L14.2131 4.6965L13.8963 5.63833L14.8441 5.9572ZM20.1384 13.0216L20.2577 14.0144L21.1687 13.905L21.1378 12.9879L20.1384 13.0216ZM18.4125 18.1546L19.1878 18.7862L19.7673 18.0749L19.1084 17.4365L18.4125 18.1546ZM6.50678 18.23L5.83762 17.4869L5.12141 18.1318L5.7395 18.8713L6.50678 18.23ZM22.6426 13.2189C22.6128 8.57208 19.4811 4.66422 15.2162 3.45677L14.6714 5.38114C18.1021 6.35242 20.6187 9.49769 20.6427 13.2317L22.6426 13.2189ZM24.5 16C24.5 14.3287 23.4753 12.8992 22.0238 12.3008L21.2615 14.1498C21.9901 14.4502 22.5 15.1667 22.5 16H24.5ZM20.5 20C22.7091 20 24.5 18.2091 24.5 16H22.5C22.5 17.1046 21.6046 18 20.5 18V20ZM19.4799 19.8685C19.8067 19.9545 20.1488 20 20.5 20V18C20.3221 18 20.151 17.977 19.9889 17.9344L19.4799 19.8685ZM12.4286 23.5C15.7273 23.5 18.661 21.9352 20.5268 19.5114L18.942 18.2914C17.4385 20.2446 15.0804 21.5 12.4286 21.5V23.5ZM4.35515 19.5436C6.22207 21.949 9.14443 23.5 12.4286 23.5V21.5C9.78846 21.5 7.4395 20.2557 5.93511 18.3173L4.35515 19.5436ZM4.93106 17.9536C4.79312 17.9839 4.64902 18 4.5 18V20C4.79392 20 5.08154 19.9681 5.35919 19.9073L4.93106 17.9536ZM4.5 18C3.39543 18 2.5 17.1046 2.5 16H0.5C0.5 18.2091 2.29086 20 4.5 20V18ZM2.5 16C2.5 15.2037 2.96535 14.5141 3.64337 14.192L2.78518 12.3854C1.43611 13.0263 0.5 14.4028 0.5 16H2.5ZM2.21427 13.2858C2.21427 13.2868 2.21427 13.2879 2.21427 13.2891L4.21427 13.2883C4.21427 13.2875 4.21427 13.2867 4.21427 13.2858H2.21427ZM8.64146 3.79684C4.87694 5.3005 2.21427 8.98097 2.21427 13.2858H4.21427C4.21427 9.82671 6.35267 6.86469 9.38332 5.65416L8.64146 3.79684ZM12 1C9.91369 1 8.20141 2.5965 8.01648 4.63516L10.0083 4.81584C10.1006 3.7981 10.9577 3 12 3V1ZM15.9251 4.22637C15.5642 2.38751 13.9452 1 12 1V3C12.9709 3 13.7822 3.69284 13.9625 4.61154L15.9251 4.22637ZM8.86016 5.33349C5.91851 6.65529 3.84052 9.56315 3.71981 12.9725L5.71856 13.0433C5.81142 10.4206 7.40973 8.17786 9.67989 7.15779L8.86016 5.33349ZM12 7C11.1932 7 10.4959 6.52226 10.1795 5.82997L8.36051 6.66131C8.99025 8.03923 10.3819 9 12 9V7ZM13.8963 5.63833C13.6295 6.43116 12.8799 7 12 7V9C13.7644 9 15.2596 7.85823 15.7919 6.27607L13.8963 5.63833ZM21.1378 12.9879C21.0123 9.25633 18.5424 6.12261 15.1569 5.00741L14.5312 6.907C17.1413 7.76679 19.0423 10.1841 19.139 13.0552L21.1378 12.9879ZM18.5 16C18.5 14.9777 19.2678 14.1333 20.2577 14.0144L20.0191 12.0287C18.0363 12.2669 16.5 13.9533 16.5 16H18.5ZM19.1084 17.4365C18.732 17.0717 18.5 16.5638 18.5 16H16.5C16.5 17.1272 16.9675 18.1469 17.7166 18.8728L19.1084 17.4365ZM12.4286 22C15.1562 22 17.5916 20.7457 19.1878 18.7862L17.6372 17.5231C16.4045 19.0363 14.5294 20 12.4286 20V22ZM5.7395 18.8713C7.33645 20.782 9.74072 22 12.4286 22V20C10.3582 20 8.50729 19.0642 7.27406 17.5887L5.7395 18.8713ZM6.5 16C6.5 16.5901 6.24573 17.1194 5.83762 17.4869L7.17594 18.9731C7.98745 18.2424 8.5 17.1804 8.5 16H6.5ZM4.64717 14.0053C5.68252 14.0801 6.5 14.945 6.5 16H8.5C8.5 13.8887 6.8649 12.1602 4.79121 12.0105L4.64717 14.0053Z" fill="#2B3E5E" mask="url(#path-1-inside-1)"/>
</svg>
