<svg width="18" height="15" viewBox="0 0 18 15" fill="none" xmlns="http://www.w3.org/2000/svg">
<path fill-rule="evenodd" clip-rule="evenodd" d="M0 1.85469C0 2.8488 0.805887 3.65469 1.8 3.65469C2.79411 3.65469 3.6 2.8488 3.6 1.85469C3.6 0.860575 2.79411 0.0546875 1.8 0.0546875C0.805887 0.0546875 0 0.860575 0 1.85469ZM17.1002 0.953947C17.5972 0.953947 18.0002 1.35689 18.0002 1.85395C18.0002 2.351 17.5972 2.75395 17.1002 2.75395H6.30018C5.80313 2.75395 5.40019 2.351 5.40019 1.85395C5.40019 1.35689 5.80313 0.953947 6.30018 0.953947H17.1002ZM18.0002 7.25321C18.0002 6.75615 17.5972 6.35321 17.1002 6.35321H6.30018C5.80313 6.35321 5.40019 6.75615 5.40019 7.25321C5.40019 7.75026 5.80313 8.15321 6.30018 8.15321H17.1002C17.5972 8.15321 18.0002 7.75026 18.0002 7.25321ZM18.0002 12.6562C18.0002 12.1591 17.5972 11.7562 17.1002 11.7562H6.30018C5.80313 11.7562 5.40019 12.1591 5.40019 12.6562C5.40019 13.1532 5.80313 13.5562 6.30018 13.5562H17.1002C17.5972 13.5562 18.0002 13.1532 18.0002 12.6562ZM0 12.6532C0 13.6473 0.805887 14.4532 1.8 14.4532C2.79411 14.4532 3.6 13.6473 3.6 12.6532C3.6 11.6591 2.79411 10.8532 1.8 10.8532C0.805887 10.8532 0 11.6591 0 12.6532ZM1.8 9.05395C0.805887 9.05395 0 8.24806 0 7.25395C0 6.25983 0.805887 5.45395 1.8 5.45395C2.79411 5.45395 3.6 6.25983 3.6 7.25395C3.6 8.24806 2.79411 9.05395 1.8 9.05395Z" fill="#E8873B"/>
</svg>
