<svg width="17" height="24" viewBox="0 0 17 24" fill="none" xmlns="http://www.w3.org/2000/svg">
<path d="M8.20703 18.9937V22.9937" stroke="#E8873B" stroke-width="2" stroke-linecap="round" stroke-linejoin="round"/>
<path d="M8.20451 1C7.3857 1 6.60043 1.31607 6.02144 1.87868C5.44246 2.44129 5.11719 3.20435 5.11719 4V12C5.11719 12.7956 5.44246 13.5587 6.02144 14.1213C6.60043 14.6839 7.3857 15 8.20451 15C9.02331 15 9.80859 14.6839 10.3876 14.1213C10.9666 13.5587 11.2918 12.7956 11.2918 12V4C11.2918 3.20435 10.9666 2.44129 10.3876 1.87868C9.80859 1.31607 9.02331 1 8.20451 1V1Z" stroke="#E8873B" stroke-width="2" stroke-linecap="round" stroke-linejoin="round"/>
<path d="M15.4075 10.003V12.003C15.4075 13.8595 14.6485 15.64 13.2976 16.9527C11.9466 18.2655 10.1143 19.003 8.20374 19.003C6.29319 19.003 4.46089 18.2655 3.10993 16.9527C1.75896 15.64 1 13.8595 1 12.003V10.003" stroke="#E8873B" stroke-width="2" stroke-linecap="round" stroke-linejoin="round"/>
<path d="M4.08984 23H12.3227" stroke="#E8873B" stroke-width="2" stroke-linecap="round" stroke-linejoin="round"/>
</svg>
