<svg width="13" height="13" viewBox="0 0 13 13" fill="none" xmlns="http://www.w3.org/2000/svg">
<path d="M12.8652 11.6016L8.75004 7.54375C9.38863 6.72969 9.73407 5.73438 9.73407 4.6875C9.73407 3.43438 9.2381 2.25938 8.34122 1.37344C7.44435 0.4875 6.24957 0 4.98032 0C3.71106 0 2.51629 0.489063 1.61941 1.37344C0.720953 2.25781 0.226562 3.43438 0.226562 4.6875C0.226562 5.93906 0.722537 7.11719 1.61941 8.00156C2.51629 8.8875 3.70948 9.375 4.98032 9.375C6.04199 9.375 7.04979 9.03438 7.87535 8.40625L11.9905 12.4625C12.0026 12.4744 12.0169 12.4839 12.0327 12.4903C12.0485 12.4967 12.0654 12.5001 12.0824 12.5001C12.0995 12.5001 12.1164 12.4967 12.1322 12.4903C12.1479 12.4839 12.1623 12.4744 12.1743 12.4625L12.8652 11.7828C12.8773 11.7709 12.8869 11.7568 12.8934 11.7412C12.8999 11.7257 12.9033 11.709 12.9033 11.6922C12.9033 11.6754 12.8999 11.6587 12.8934 11.6431C12.8869 11.6276 12.8773 11.6135 12.8652 11.6016ZM7.4903 7.1625C6.81844 7.82344 5.9279 8.1875 4.98032 8.1875C4.03274 8.1875 3.1422 7.82344 2.47033 7.1625C1.80006 6.5 1.43085 5.62188 1.43085 4.6875C1.43085 3.75313 1.80006 2.87344 2.47033 2.2125C3.1422 1.55156 4.03274 1.1875 4.98032 1.1875C5.9279 1.1875 6.82002 1.55 7.4903 2.2125C8.16058 2.875 8.52979 3.75313 8.52979 4.6875C8.52979 5.62188 8.16058 6.50156 7.4903 7.1625Z" fill="#9198A5"/>
</svg>
