<svg width="58" height="20" viewBox="0 0 58 20" fill="none" xmlns="http://www.w3.org/2000/svg">
<path d="M0.74 13.32C1.98 14.54 3.68 15.24 5.44 15.24C8.38 15.24 10.14 13.48 10.14 11.36C10.14 9.46 9.06 8.48 7.5 7.82L5.74 7.08C4.66 6.64 3.66 6.26 3.66 5.24C3.66 4.28 4.46 3.7 5.7 3.7C6.82 3.7 7.72 4.12 8.54 4.82L9.74 3.34C8.72 2.32 7.24 1.68 5.7 1.68C3.16 1.68 1.32 3.28 1.32 5.36C1.32 7.28 2.66 8.3 3.96 8.84L5.74 9.62C6.94 10.12 7.78 10.46 7.78 11.54C7.78 12.56 6.96 13.22 5.5 13.22C4.28 13.22 3.02 12.62 2.08 11.74L0.74 13.32ZM13.4598 3.46C14.2798 3.46 14.8798 2.92 14.8798 2.16C14.8798 1.38 14.2798 0.84 13.4598 0.84C12.6398 0.84 12.0398 1.38 12.0398 2.16C12.0398 2.92 12.6398 3.46 13.4598 3.46ZM12.2998 15H14.5998V5.18H12.2998V15ZM18.7942 16.44C18.7942 15.98 19.0342 15.54 19.5542 15.14C19.9342 15.24 20.3542 15.28 20.8942 15.28H22.2342C23.3542 15.28 23.9742 15.5 23.9742 16.26C23.9742 17.1 22.8942 17.84 21.3142 17.84C19.7542 17.84 18.7942 17.32 18.7942 16.44ZM16.8742 16.78C16.8742 18.5 18.6142 19.34 20.9542 19.34C24.1542 19.34 26.1942 17.82 26.1942 15.88C26.1942 14.18 24.9542 13.46 22.5942 13.46H20.8542C19.6542 13.46 19.2542 13.12 19.2542 12.56C19.2542 12.12 19.4342 11.88 19.7342 11.62C20.1742 11.8 20.6542 11.88 21.0742 11.88C23.1542 11.88 24.7942 10.72 24.7942 8.54C24.7942 7.86 24.5542 7.26 24.2342 6.88H26.0342V5.18H22.5142C22.1142 5.04 21.6142 4.94 21.0742 4.94C19.0142 4.94 17.1942 6.2 17.1942 8.46C17.1942 9.62 17.8142 10.56 18.4742 11.06V11.14C17.9142 11.54 17.3942 12.2 17.3942 12.96C17.3942 13.76 17.7742 14.28 18.2742 14.6V14.68C17.3742 15.24 16.8742 15.96 16.8742 16.78ZM21.0742 10.44C20.1142 10.44 19.3542 9.72 19.3542 8.46C19.3542 7.22 20.1142 6.52 21.0742 6.52C22.0342 6.52 22.7742 7.24 22.7742 8.46C22.7742 9.72 22.0142 10.44 21.0742 10.44ZM27.9248 15H30.2248V8.14C31.0448 7.34 31.6048 6.92 32.4648 6.92C33.5448 6.92 34.0048 7.52 34.0048 9.14V15H36.3048V8.84C36.3048 6.36 35.3848 4.94 33.2848 4.94C31.9448 4.94 30.9448 5.64 30.0648 6.5H29.9848L29.8248 5.18H27.9248V15ZM43.3978 15H45.7178V1.92H43.3978V15ZM48.8038 15H51.1038V8.14C51.9238 7.34 52.4837 6.92 53.3438 6.92C54.4238 6.92 54.8838 7.52 54.8838 9.14V15H57.1838V8.84C57.1838 6.36 56.2638 4.94 54.1638 4.94C52.8238 4.94 51.8238 5.64 50.9438 6.5H50.8638L50.7038 5.18H48.8038V15Z" fill="#E8873B"/>
</svg>
